<?xml version="1.0" encoding="utf-8"?>
<!-- Generator: Adobe Illustrator 15.0.2, SVG Export Plug-In . SVG Version: 6.00 Build 0)  -->
<!DOCTYPE svg PUBLIC "-//W3C//DTD SVG 1.1//EN" "http://www.w3.org/Graphics/SVG/1.1/DTD/svg11.dtd">
<svg version="1.1" id="Layer_1" xmlns="http://www.w3.org/2000/svg" xmlns:xlink="http://www.w3.org/1999/xlink" x="0px" y="0px"
	 width="1000px" height="144.5px" viewBox="0 0 1000 144.5" enable-background="new 0 0 1000 144.5" xml:space="preserve">
<g>
	<path fill="none" d="M35.279,108.959h-0.522c0-0.369-0.025-0.613-0.075-0.732c-0.05-0.118-0.178-0.265-0.384-0.44
		c-0.206-0.174-0.742-0.57-1.606-1.188l-2.987-2.151l-2.384,1.394c-0.201,0.121-0.56,0.363-1.079,0.725
		c-0.52,0.361-0.915,0.68-1.182,0.954c-0.106,0.116-0.174,0.223-0.206,0.32s-0.047,0.395-0.047,0.891h-0.459l-0.38-2.312
		c0.137-0.201,0.317-0.388,0.537-0.562c0.316-0.248,0.863-0.596,1.639-1.045l2.308-1.33c-2.302-1.62-3.562-2.456-3.779-2.509h-0.633
		c0.021-0.57,0.032-0.961,0.032-1.172s-0.011-0.53-0.032-0.958h0.483c0.016,0.332,0.036,0.541,0.06,0.625
		c0.023,0.085,0.057,0.16,0.099,0.229c0.063,0.095,0.203,0.235,0.418,0.42c0.216,0.185,0.66,0.525,1.33,1.021
		c0.669,0.497,1.289,0.953,1.859,1.37l0.795,0.592l4.331-2.682c0.563-0.349,0.938-0.606,1.123-0.775
		c0.09-0.079,0.148-0.166,0.174-0.262c0.026-0.095,0.042-0.316,0.047-0.665h0.522c-0.021,0.575-0.032,0.964-0.032,1.164
		c0,0.222,0.011,0.615,0.032,1.18c-0.475,0.316-0.942,0.609-1.401,0.879l-3.555,2.079l1.425,1.004
		c1.478,0.991,2.465,1.589,2.961,1.794l0.57,0.017c-0.021,0.55-0.032,0.921-0.032,1.112
		C35.248,108.069,35.258,108.409,35.279,108.959z"/>
	<path fill="none" d="M34.05,91.393l0.57,0.253c0.229,0.364,0.379,0.631,0.453,0.8c0.111,0.248,0.205,0.532,0.282,0.852
		c0.077,0.318,0.115,0.655,0.115,1.009c0,0.696-0.145,1.327-0.435,1.892c-0.291,0.565-0.725,1.005-1.302,1.318
		c-0.578,0.314-1.255,0.472-2.031,0.472c-0.607,0-1.154-0.084-1.643-0.25s-0.849-0.354-1.081-0.565
		c-0.169-0.153-0.363-0.391-0.582-0.713c-0.219-0.322-0.392-0.642-0.519-0.958c-0.174-0.417-0.261-0.868-0.261-1.354
		c0-0.591,0.135-1.126,0.404-1.604s0.636-0.827,1.101-1.049s0.989-0.332,1.575-0.332c0.148,0,0.327,0.013,0.538,0.039
		c0.074,0.38,0.122,0.72,0.143,1.021c0.042,0.568,0.063,1.139,0.063,1.707v2.537c0.756-0.011,1.368-0.141,1.836-0.392
		c0.469-0.251,0.814-0.597,1.036-1.037c0.223-0.44,0.333-0.898,0.333-1.374c0-0.321-0.053-0.643-0.157-0.961
		c-0.104-0.319-0.296-0.714-0.574-1.184L34.05,91.393z M30.814,96.467c0.016-0.147,0.032-0.428,0.047-0.839
		c0.027-0.786,0.04-1.327,0.04-1.623c0-0.702-0.013-1.164-0.04-1.386c-0.126-0.005-0.224-0.008-0.292-0.008
		c-0.834,0-1.446,0.169-1.837,0.507s-0.585,0.789-0.585,1.354c0,0.597,0.213,1.077,0.641,1.441
		C29.215,96.277,29.891,96.462,30.814,96.467z"/>
	<path fill="none" d="M35.367,87.229l-1.102,0.332l-2.449,0.736c-0.708,0.211-1.392,0.427-2.053,0.646
		c-0.661,0.219-1.041,0.364-1.142,0.436c-0.1,0.071-0.171,0.158-0.213,0.261c-0.042,0.104-0.082,0.355-0.119,0.757h-0.451
		c0.037-0.581,0.056-1.204,0.056-1.869c0-0.707-0.019-1.366-0.056-1.979h0.451c0.005,0.49,0.024,0.81,0.056,0.958
		c0.021,0.1,0.059,0.173,0.115,0.218c0.055,0.045,0.12,0.067,0.194,0.067c0.122,0,0.447-0.077,0.975-0.23l2.55-0.734
		c0.428-0.121,0.891-0.27,1.387-0.443l-1.376-0.602l-2.603-1.164c-0.618-0.275-1.24-0.534-1.867-0.777v-0.388
		c0.964-0.348,1.603-0.584,1.915-0.711l2.294-0.909c0.769-0.312,1.35-0.546,1.74-0.704l-1.561-0.594
		c-1.002-0.386-1.857-0.684-2.566-0.9c-0.385-0.121-0.659-0.182-0.817-0.182c-0.148,0-0.254,0.05-0.321,0.153
		c-0.066,0.103-0.104,0.445-0.115,1.026h-0.451c0.037-0.803,0.056-1.359,0.056-1.665c0-0.37-0.019-0.871-0.056-1.507h0.451
		c0.005,0.306,0.033,0.512,0.083,0.617c0.05,0.105,0.133,0.198,0.249,0.277c0.18,0.137,0.603,0.351,1.268,0.641l1.982,0.831
		l0.888,0.356c0.174,0.069,0.71,0.272,1.608,0.61c0.38,0.147,0.714,0.258,0.999,0.332v0.744l-0.99,0.38l-4.538,1.807l1.639,0.76
		l1.988,0.894c0.459,0.205,0.85,0.372,1.172,0.498l0.729,0.262V87.229z"/>
	<path fill="none" d="M31.634,76.565c-1.184,0-2.149-0.376-2.896-1.128c-0.748-0.753-1.122-1.717-1.122-2.894
		c0-1.108,0.349-2.011,1.046-2.708c0.697-0.696,1.598-1.045,2.702-1.045c0.771,0,1.477,0.18,2.115,0.539
		c0.64,0.359,1.14,0.866,1.501,1.52c0.363,0.654,0.543,1.375,0.543,2.161c0,0.612-0.103,1.131-0.309,1.556
		c-0.208,0.425-0.466,0.77-0.777,1.033s-0.632,0.464-0.959,0.602C32.904,76.443,32.288,76.565,31.634,76.565z M31.047,75.069
		c0.65,0,1.31-0.108,1.981-0.325c0.672-0.216,1.161-0.529,1.47-0.938c0.31-0.409,0.464-0.854,0.464-1.334
		c0-0.612-0.243-1.124-0.73-1.536c-0.485-0.412-1.233-0.617-2.243-0.617c-0.84,0-1.565,0.123-2.176,0.368
		c-0.609,0.246-1.041,0.558-1.292,0.938c-0.251,0.38-0.376,0.799-0.376,1.258c0,0.649,0.235,1.176,0.704,1.579
		C29.322,74.867,30.053,75.069,31.047,75.069z"/>
	<path fill="none" d="M35.279,67.881h-0.451c-0.011-0.601-0.021-0.924-0.032-0.971c-0.016-0.091-0.041-0.158-0.075-0.203
		s-0.083-0.081-0.146-0.108c-0.121-0.053-0.311-0.084-0.57-0.095c-1.409-0.026-2.146-0.04-2.208-0.04h-0.942
		c-0.422,0-0.876,0.008-1.361,0.023c-0.312,0.011-0.496,0.033-0.554,0.067c-0.058,0.035-0.102,0.095-0.131,0.182
		c-0.029,0.087-0.041,0.432-0.036,1.033h-0.451c-0.147-1.066-0.34-1.844-0.578-2.335c-0.053-0.105-0.079-0.177-0.079-0.214
		c0-0.037,0.013-0.066,0.04-0.087s0.066-0.032,0.119-0.032c0.037,0,0.079,0.003,0.126,0.008c0.322,0.026,0.821,0.042,1.496,0.047
		c-0.274-0.238-0.546-0.457-0.815-0.657c-0.27-0.201-0.443-0.346-0.523-0.435c-0.137-0.159-0.247-0.341-0.328-0.546
		c-0.082-0.206-0.123-0.419-0.123-0.641s0.048-0.441,0.143-0.657l0.111-0.047c0.702,0.079,1.319,0.124,1.853,0.134v0.356
		c-0.253,0.121-0.438,0.263-0.554,0.423c-0.116,0.161-0.174,0.363-0.174,0.606c0,0.406,0.168,0.752,0.503,1.037
		c0.335,0.285,0.838,0.428,1.508,0.428h0.815c0.349,0,0.984-0.013,1.908-0.04c0.327-0.005,0.536-0.019,0.625-0.04
		c0.09-0.021,0.155-0.049,0.194-0.083c0.04-0.034,0.072-0.091,0.099-0.17c0.048-0.158,0.095-0.586,0.143-1.283h0.451
		c-0.037,0.929-0.055,1.721-0.055,2.375C35.224,66.593,35.243,67.248,35.279,67.881z"/>
	<path fill="none" d="M35.279,61.445h-0.451l-0.008-0.744c-0.005-0.116-0.025-0.205-0.06-0.265c-0.034-0.061-0.078-0.107-0.13-0.139
		c-0.105-0.058-0.293-0.092-0.562-0.103c-0.069-0.005-0.825-0.023-2.27-0.055h-3.284c-0.88,0-1.789,0.013-2.729,0.04
		c-0.633,0.021-0.985,0.05-1.059,0.087c-0.053,0.028-0.09,0.07-0.111,0.128c-0.037,0.079-0.056,0.446-0.056,1.099h-0.467
		c-0.148-1.192-0.333-2.021-0.554-2.485c-0.032-0.069-0.048-0.122-0.048-0.159c0-0.037,0.012-0.066,0.036-0.087
		c0.024-0.021,0.057-0.032,0.099-0.032c0.037,0,0.09,0.005,0.158,0.016l0.26,0.008c0.944,0.026,1.75,0.042,2.413,0.047l1.235,0.016
		h4.104c1.373-0.022,2.112-0.035,2.223-0.04c0.264-0.005,0.457-0.037,0.578-0.095c0.047-0.021,0.088-0.054,0.123-0.096
		c0.034-0.042,0.062-0.106,0.083-0.191c0.005-0.037,0.013-0.331,0.024-0.884h0.451c-0.037,0.718-0.055,1.349-0.055,1.892
		C35.224,59.919,35.243,60.601,35.279,61.445z"/>
	<path fill="none" d="M34.05,50.132l0.57,0.253c0.229,0.364,0.379,0.631,0.453,0.799c0.111,0.248,0.205,0.532,0.282,0.851
		c0.077,0.319,0.115,0.656,0.115,1.009c0,0.697-0.145,1.328-0.435,1.892c-0.291,0.565-0.725,1.004-1.302,1.318
		c-0.578,0.314-1.255,0.471-2.031,0.471c-0.607,0-1.154-0.083-1.643-0.249c-0.488-0.167-0.849-0.355-1.081-0.566
		c-0.169-0.153-0.363-0.391-0.582-0.712c-0.219-0.322-0.392-0.641-0.519-0.958c-0.174-0.417-0.261-0.868-0.261-1.354
		c0-0.591,0.135-1.125,0.404-1.603s0.636-0.827,1.101-1.049s0.989-0.333,1.575-0.333c0.148,0,0.327,0.013,0.538,0.04
		c0.074,0.38,0.122,0.719,0.143,1.02c0.042,0.568,0.063,1.139,0.063,1.707v2.537c0.756-0.01,1.368-0.141,1.836-0.392
		c0.469-0.25,0.814-0.596,1.036-1.037c0.223-0.441,0.333-0.898,0.333-1.374c0-0.322-0.053-0.643-0.157-0.962
		c-0.104-0.319-0.296-0.714-0.574-1.184L34.05,50.132z M30.814,55.207c0.016-0.147,0.032-0.427,0.047-0.839
		c0.027-0.787,0.04-1.328,0.04-1.623c0-0.702-0.013-1.164-0.04-1.385c-0.126-0.005-0.224-0.008-0.292-0.008
		c-0.834,0-1.446,0.169-1.837,0.506c-0.391,0.338-0.585,0.789-0.585,1.354c0,0.596,0.213,1.077,0.641,1.44
		C29.215,55.017,29.891,55.202,30.814,55.207z"/>
	<path fill="none" d="M35.311,48.335c-0.665-0.063-1.084-0.098-1.259-0.103c-1.144-0.032-1.815-0.047-2.016-0.047h-3.52
		c-0.881,0-1.791,0.013-2.73,0.04c-0.633,0.021-0.985,0.05-1.059,0.087c-0.053,0.028-0.09,0.07-0.111,0.128
		c-0.037,0.079-0.056,0.446-0.056,1.099h-0.467c-0.148-1.193-0.333-2.021-0.554-2.486c-0.032-0.068-0.048-0.121-0.048-0.158
		s0.012-0.066,0.036-0.087c0.024-0.021,0.057-0.032,0.099-0.032c0.037,0,0.09,0.005,0.157,0.016l0.261,0.008
		c0.943,0.026,1.747,0.042,2.412,0.047l1.232,0.016h1.566l-1.068-1.092c-0.122-0.143-0.24-0.377-0.356-0.705
		s-0.174-0.676-0.174-1.045c0-0.581,0.136-1.095,0.408-1.544c0.272-0.448,0.656-0.793,1.152-1.033c0.496-0.24,1.045-0.36,1.646-0.36
		c0.465,0,0.905,0.068,1.322,0.206s0.789,0.314,1.116,0.531c0.248,0.158,0.417,0.293,0.507,0.403l0.831,1.156
		c0.348,0.47,0.571,0.836,0.669,1.1c0.098,0.264,0.146,0.602,0.146,1.013c0,0.354-0.047,0.681-0.143,0.982
		c-0.095,0.301-0.261,0.62-0.499,0.958l0.602,0.642L35.311,48.335z M30.205,46.863h2.969c0.264,0,0.433-0.015,0.506-0.043
		c0.074-0.029,0.172-0.117,0.293-0.265c0.185-0.222,0.333-0.479,0.443-0.772s0.166-0.603,0.166-0.93
		c0-0.765-0.295-1.354-0.886-1.765c-0.591-0.412-1.322-0.618-2.193-0.618c-0.618,0-1.135,0.098-1.552,0.293
		s-0.729,0.464-0.938,0.808c-0.208,0.343-0.313,0.728-0.313,1.156c0,0.501,0.144,0.95,0.432,1.346
		C29.42,46.467,29.777,46.731,30.205,46.863z"/>
	<path fill="none" d="M28.764,40.039h-0.451c-0.116-1.024-0.338-1.884-0.665-2.581l0.127-0.174c1.124,0.042,1.984,0.063,2.581,0.063
		h1.441c1.372-0.026,2.113-0.042,2.224-0.047c0.264-0.005,0.457-0.034,0.578-0.087c0.047-0.026,0.088-0.061,0.123-0.103
		c0.034-0.042,0.062-0.105,0.083-0.19c0.005-0.032,0.013-0.325,0.024-0.879h0.451c-0.037,0.802-0.055,1.443-0.055,1.924
		c0,0.422,0.019,1.114,0.055,2.074h-0.451l-0.008-0.757c-0.005-0.111-0.025-0.197-0.06-0.259c-0.034-0.061-0.078-0.107-0.13-0.139
		c-0.105-0.059-0.293-0.096-0.562-0.112c-0.069,0-0.826-0.013-2.272-0.04h-1.394c-0.786,0-1.253,0.026-1.401,0.079
		c-0.08,0.032-0.139,0.088-0.178,0.17C28.784,39.064,28.764,39.416,28.764,40.039z M24.133,38.107c0-0.248,0.087-0.458,0.261-0.629
		c0.174-0.171,0.385-0.257,0.633-0.257c0.243,0,0.451,0.087,0.625,0.261c0.174,0.174,0.261,0.383,0.261,0.625
		c0,0.248-0.087,0.459-0.261,0.633c-0.174,0.174-0.383,0.261-0.625,0.261c-0.248,0-0.459-0.087-0.633-0.261
		C24.22,38.566,24.133,38.355,24.133,38.107z"/>
</g>
<g>
	<g>
		<g>
			<polygon fill="#204785" points="35.88,134.817 10.21,110.146 10.21,34.839 35.88,10.167 77.423,10.167 103.092,34.839 
				103.092,59.044 67.036,59.044 67.036,40.603 46.267,40.603 46.267,104.384 67.036,104.384 67.036,85.94 103.092,85.94 
				103.092,110.146 77.423,134.817 			"/>
		</g>
		<g>
			<path fill="#204785" d="M144.267,134.817l-25.755-24.664V34.832l25.755-24.665h41.659l25.756,24.665v75.322l-25.756,24.664
				H144.267z M175.521,104.384V40.603h-20.848v63.781H175.521z"/>
		</g>
		<g>
			<polygon fill="#204785" points="263.249,75.911 263.249,134.817 227.101,134.817 227.101,10.167 261.793,10.167 293.876,73.482 
				325.961,10.167 360.65,10.167 360.65,134.817 324.504,134.817 324.504,75.917 293.878,135.55 			"/>
		</g>
		<g>
			<polygon fill="#204785" points="548.793,134.817 523.322,110.13 523.322,10.167 559.47,10.167 559.47,104.384 581.058,104.384 
				581.058,10.167 617.207,10.167 617.207,110.13 591.734,134.817 			"/>
		</g>
		<g>
			<polygon fill="#204785" points="698.088,134.817 667.412,75.675 667.412,134.817 631.264,134.817 631.264,10.167 665.914,10.167 
				696.532,69.197 696.532,10.167 733.684,10.167 733.684,134.817 			"/>
		</g>
		<g>
			<rect x="747.743" y="10.167" fill="#204785" width="36.148" height="124.65"/>
		</g>
		<g>
			<polygon fill="#204785" points="819.787,40.603 795.188,40.603 795.188,10.167 879.534,10.167 879.534,40.603 854.933,40.603 
				854.933,134.637 819.787,134.858 			"/>
		</g>
		<g>
			<polygon fill="#204785" points="920.199,134.817 920.199,84.368 886.468,10.167 922.114,10.167 937.773,49.471 953.431,10.167 
				989.079,10.167 955.344,84.368 955.344,134.817 			"/>
		</g>
	</g>
</g>
<g>
	<g>
		<g>
			<polygon fill="#FFFFFF" points="36.891,132.308 12.72,109.077 12.72,35.908 36.891,12.677 76.412,12.677 100.583,35.908 
				100.583,56.535 69.545,56.535 69.545,38.093 43.757,38.093 43.757,106.894 69.545,106.894 69.545,88.45 100.583,88.45 
				100.583,109.077 76.412,132.308 			"/>
		</g>
		<g>
			<path fill="#FFFFFF" d="M145.275,132.308l-24.253-23.226V35.903l24.253-23.227h39.643l24.254,23.227v73.179l-24.254,23.226
				H145.275z M178.031,106.894v-68.8h-25.868v68.8H178.031z"/>
		</g>
		<g>
			<polygon fill="#FFFFFF" points="327.014,132.308 327.014,65.536 293.878,130.056 260.739,65.53 260.739,132.308 229.611,132.308 
				229.611,12.677 260.251,12.677 293.876,79.035 327.503,12.677 358.141,12.677 358.141,132.308 			"/>
		</g>
		<g>
			<polygon fill="#FFFFFF" points="549.81,132.308 525.832,109.067 525.832,12.677 556.96,12.677 556.96,106.894 583.567,106.894 
				583.567,12.677 614.697,12.677 614.697,109.067 590.718,132.308 			"/>
		</g>
		<g>
			<polygon fill="#FFFFFF" points="699.613,132.308 664.902,65.385 664.902,132.308 633.773,132.308 633.773,12.677 664.389,12.677 
				699.042,79.487 699.042,12.677 731.174,12.677 731.174,132.308 			"/>
		</g>
		<g>
			<rect x="750.253" y="12.677" fill="#FFFFFF" width="31.129" height="119.631"/>
		</g>
		<g>
			<polygon fill="#FFFFFF" points="822.297,38.093 797.698,38.093 797.698,12.677 877.024,12.677 877.024,38.093 852.423,38.093 
				852.423,132.143 822.297,132.333 			"/>
		</g>
		<g>
			<polygon fill="#FFFFFF" points="922.709,132.308 922.709,83.824 890.365,12.677 920.412,12.677 937.773,56.252 955.133,12.677 
				985.181,12.677 952.834,83.824 952.834,132.308 			"/>
		</g>
	</g>
</g>
<g>
	<path fill="#224C8C" d="M96.567,92.577v14.901l-21.771,20.924H38.507l-21.772-20.924v-69.75l21.772-20.925h36.288l21.771,20.925
		V52.63H73.561V34.188H39.742v76.83h33.819V92.577H96.567z"/>
	<path fill="#224C8C" d="M146.888,128.402l-21.85-20.924v-69.75l21.85-20.925h36.418l21.851,20.925v69.75l-21.851,20.924H146.888z
		 M182.046,111.019v-76.83h-33.899v76.83H182.046z"/>
	<path fill="#224C8C" d="M329.97,16.804h24.156v111.599h-23.097V49.038l-37.15,72.34l-37.156-72.345v79.369h-23.097V16.804h24.158
		l36.092,71.225L329.97,16.804z"/>
	<path fill="#224C8C" d="M610.682,16.804v90.675l-21.591,20.924h-37.654l-21.589-20.924V16.804h23.097v94.215h34.639V16.804H610.682
		z"/>
	<path fill="#224C8C" d="M727.158,128.402h-25.104l-41.167-79.369v79.369h-23.098V16.804h24.159l41.109,79.259V16.804h24.101
		V128.402z"/>
	<path fill="#224C8C" d="M754.269,16.804h23.098v111.599h-23.098V16.804z"/>
	<path fill="#224C8C" d="M848.407,128.264l-22.095,0.139V34.188h-24.599V16.804h71.295v17.385h-24.602V128.264z"/>
	<path fill="#224C8C" d="M948.818,128.402h-22.094V83.065l-30.123-66.262h21.088l20.084,50.41l20.082-50.41h21.088l-30.125,66.262
		V128.402z"/>
</g>
<g>
	<polygon fill="#204785" points="412.833,75.967 412.833,134.872 376.686,134.872 376.686,10.222 411.377,10.222 443.461,73.537 
		475.546,10.222 510.235,10.222 510.235,134.872 474.088,134.872 474.088,75.973 443.463,135.606 	"/>
</g>
<g>
	<polygon fill="#FFFFFF" points="476.598,132.362 476.598,65.592 443.463,130.112 410.324,65.586 410.324,132.362 379.196,132.362 
		379.196,12.732 409.835,12.732 443.46,79.089 477.088,12.732 507.726,12.732 507.726,132.362 	"/>
</g>
<path fill="#224C8C" d="M479.555,16.858h24.155v111.599h-23.097V49.092l-37.15,72.339l-37.155-72.344v79.37h-23.097V16.858h24.157
	l36.092,71.226L479.555,16.858z"/>
</svg>
